<?xml version="1.0" encoding="utf-8"?>
<!-- Generator: Adobe Illustrator 15.1.0, SVG Export Plug-In . SVG Version: 6.00 Build 0)  -->
<!DOCTYPE svg PUBLIC "-//W3C//DTD SVG 1.1//EN" "http://www.w3.org/Graphics/SVG/1.1/DTD/svg11.dtd">
<svg version="1.1" id="Isolation_Mode" xmlns="http://www.w3.org/2000/svg" xmlns:xlink="http://www.w3.org/1999/xlink" x="0px"
	 y="0px" width="2320.002px" height="1632px" viewBox="0 0 2320.002 1632" enable-background="new 0 0 2320.002 1632"
	 xml:space="preserve">
<g>
	<g>
		<path fill="#FFFFFF" d="M915.463,1112.463c-31.764,20.794-65.825,69.354-65.825,69.354
			c-65.456,69.438-131.108,1.773-131.108,1.773c-76.452-76.234-177.136-220.155-177.136-220.155s-104.711-140.999-152.88-237.638
			c0,0-40.939-79.415,37.178-120.615v0.011c2.01-1.061,3.765-2.217,5.926-3.235c0,0,56.826-16.964,86.602-40.53
			c0,0,110.119-193.385-52.583-436.11c0,0-63.793,9.511-135.134,34.168c0,0-227.665,137.364-255.535,262.068
			c0,0-14.085,229.07,284.467,673.057c326.854,423.56,548.651,482.612,548.651,482.612c127.108,12.94,329.387-159.63,329.387-159.63
			c45.939-59.874,75.131-117.412,75.131-117.412C1133.758,1069.119,915.463,1112.463,915.463,1112.463z"/>
	</g>
	<g>
		<path fill="#FFFFFF" d="M1895.186,69.294h-736.35c-203.339,0-368.184,164.834-368.184,368.165
			c0,143.422,82.207,267.392,201.89,328.176l-54.593,259.797l286.69-219.786h670.546c203.319,0,368.187-164.824,368.187-368.187
			C2263.372,234.129,2098.505,69.294,1895.186,69.294z M1055.749,555.283c-65.065,0-117.799-52.746-117.799-117.824
			c0-65.046,52.734-117.813,117.799-117.813c65.091,0,117.826,52.768,117.826,117.813
			C1173.574,502.537,1120.84,555.283,1055.749,555.283z M1527.022,555.283c-65.089,0-117.822-52.746-117.822-117.824
			c0-65.046,52.733-117.813,117.822-117.813c65.047,0,117.802,52.768,117.802,117.813
			C1644.824,502.537,1592.069,555.283,1527.022,555.283z M1998.254,555.283c-65.068,0-117.825-52.746-117.825-117.824
			c0-65.046,52.757-117.813,117.825-117.813s117.824,52.768,117.824,117.813C2116.078,502.537,2063.322,555.283,1998.254,555.283z"
			/>
	</g>
</g>
</svg>
