<?xml version="1.0" encoding="utf-8"?>
<!-- Generator: Adobe Illustrator 15.1.0, SVG Export Plug-In . SVG Version: 6.00 Build 0)  -->
<!DOCTYPE svg PUBLIC "-//W3C//DTD SVG 1.1//EN" "http://www.w3.org/Graphics/SVG/1.1/DTD/svg11.dtd">
<svg version="1.1" id="Layer_1" xmlns="http://www.w3.org/2000/svg" xmlns:xlink="http://www.w3.org/1999/xlink" x="0px" y="0px"
	 width="170.08px" height="170.08px" viewBox="0 0 170.08 170.08" enable-background="new 0 0 170.08 170.08" xml:space="preserve">
<g>
	<g>
		<g>
			<g>
				<path fill="#FFFFFF" d="M69.172,69.25c-0.605,0-1.096-0.492-1.096-1.096c0-0.918,0.076-1.84,0.226-2.75
					c1.342-7.99,8.201-13.787,16.311-13.787c5.851,0,11.324,3.141,14.286,8.197c0.305,0.521,0.129,1.191-0.393,1.498
					c-0.521,0.303-1.193,0.129-1.498-0.391c-2.57-4.389-7.319-7.113-12.396-7.113c-7.036,0-12.987,5.027-14.15,11.955
					c-0.13,0.787-0.195,1.594-0.195,2.391C70.267,68.758,69.775,69.25,69.172,69.25z"/>
			</g>
			<g>
				<path fill="#FFFFFF" d="M79.858,83.941c-0.111,0-0.227-0.018-0.337-0.053c-3.058-0.99-5.746-2.842-7.776-5.354
					c-0.381-0.471-0.308-1.16,0.163-1.541c0.465-0.379,1.158-0.309,1.539,0.164c1.763,2.184,4.097,3.787,6.747,4.645
					c0.576,0.188,0.891,0.805,0.706,1.379C80.751,83.645,80.319,83.941,79.858,83.941z"/>
			</g>
			<g>
				<path fill="#FFFFFF" d="M89.367,83.941c-0.463,0-0.893-0.295-1.043-0.758c-0.186-0.574,0.13-1.191,0.705-1.379
					c3.367-1.088,6.205-3.381,7.996-6.457c0.309-0.52,0.98-0.693,1.497-0.395c0.523,0.305,0.7,0.975,0.396,1.496
					c-2.063,3.543-5.335,6.186-9.216,7.439C89.592,83.924,89.478,83.941,89.367,83.941z"/>
			</g>
			<g>
				<path fill="#FFFFFF" d="M79.894,88.797c-0.086,0-0.171-0.008-0.258-0.029c-9.556-2.305-16.229-10.781-16.229-20.613
					c0-3.795,1.015-7.518,2.936-10.766c0.305-0.52,0.979-0.693,1.5-0.385s0.692,0.98,0.385,1.5c-1.721,2.91-2.63,6.248-2.63,9.65
					c0,8.816,5.983,16.418,14.551,18.482c0.588,0.143,0.95,0.736,0.809,1.322C80.835,88.461,80.387,88.797,79.894,88.797z"/>
			</g>
			<g>
				<path fill="#FFFFFF" d="M89.368,88.785c-0.493,0-0.941-0.336-1.063-0.836c-0.143-0.588,0.218-1.18,0.806-1.322
					c8.545-2.072,14.514-9.668,14.514-18.473c0-10.482-8.53-19.012-19.013-19.012c-1.082,0-2.17,0.092-3.23,0.275
					c-0.59,0.096-1.162-0.299-1.265-0.895s0.298-1.162,0.894-1.264c1.184-0.205,2.396-0.307,3.602-0.307
					c11.69,0,21.202,9.512,21.202,21.201c0,9.818-6.657,18.291-16.188,20.6C89.541,88.775,89.453,88.785,89.368,88.785z"/>
			</g>
			<g>
				<path fill="#FFFFFF" d="M66.628,85.967c-0.294,0-0.586-0.115-0.802-0.348c-2.129-2.287-3.805-4.924-4.985-7.84
					c-2.572-6.352-2.517-13.326,0.153-19.637c2.672-6.313,7.641-11.203,13.99-13.773c3.749-1.52,7.677-2.125,11.689-1.795
					c0.602,0.049,1.051,0.578,1,1.18c-0.049,0.604-0.563,1.066-1.18,1.002c-3.653-0.289-7.257,0.254-10.688,1.643
					c-5.808,2.352-10.35,6.824-12.794,12.596c-2.443,5.773-2.493,12.152-0.141,17.965c1.079,2.666,2.613,5.078,4.559,7.168
					c0.412,0.441,0.387,1.135-0.057,1.547C67.162,85.871,66.896,85.967,66.628,85.967z"/>
			</g>
			<g>
				<path fill="#FFFFFF" d="M79.868,93.342c-0.07,0-0.142-0.006-0.215-0.02c-1.474-0.291-2.932-0.717-4.332-1.264
					c-0.563-0.221-0.842-0.855-0.621-1.42c0.222-0.563,0.857-0.84,1.42-0.619c1.278,0.5,2.61,0.889,3.959,1.154
					c0.593,0.117,0.979,0.693,0.861,1.287C80.837,92.982,80.38,93.342,79.868,93.342z"/>
			</g>
			<g>
				<path fill="#FFFFFF" d="M89.365,93.346c-1.213,0-1.488-1.764-0.336-2.137c0.658-0.213,1.367-0.305,2.037-0.496
					c0.741-0.213,1.473-0.461,2.19-0.746c2.034-0.807,3.956-1.895,5.688-3.232c3.313-2.559,5.898-6.008,7.447-9.893
					c1.555-3.896,2.049-8.189,1.396-12.334c-0.354-2.248-1.041-4.441-2.021-6.494c-0.579-1.211-1.262-2.373-2.039-3.469
					c-0.371-0.523-0.766-1.033-1.18-1.525c-0.377-0.449-0.902-0.865-0.798-1.518c0.081-0.498,0.509-0.889,1.016-0.918
					c0.66-0.039,1.036,0.527,1.415,0.975c0.877,1.037,1.672,2.145,2.375,3.309c1.273,2.111,2.244,4.406,2.871,6.793
					c1.073,4.092,1.105,8.432,0.103,12.543c-2.056,8.428-8.374,15.396-16.586,18.213c-0.604,0.207-1.215,0.393-1.833,0.555
					C90.565,93.113,89.934,93.346,89.365,93.346C88.854,93.346,89.436,93.346,89.365,93.346z"/>
			</g>
			<g>
				<path fill="#FFFFFF" d="M100.67,44.721c-0.227,0.016-0.459-0.041-0.662-0.174c-5.09-3.301-10.987-4.844-17.053-4.465
					c-1.144,0.072-2.285,0.213-3.397,0.42c-0.582,0.109-1.167-0.279-1.277-0.875c-0.111-0.596,0.282-1.166,0.876-1.277
					c1.198-0.223,2.431-0.377,3.662-0.453c6.538-0.41,12.895,1.256,18.38,4.813c0.507,0.33,0.653,1.008,0.323,1.514
					C101.324,44.527,101.004,44.701,100.67,44.721z"/>
			</g>
			<g>
				<path fill="#FFFFFF" d="M67.211,45.902c-0.355,0.021-0.714-0.129-0.944-0.436c-0.364-0.48-0.268-1.168,0.216-1.533
					c1.699-1.281,3.53-2.383,5.44-3.27c0.547-0.252,1.2-0.018,1.453,0.533c0.256,0.547,0.017,1.199-0.532,1.453
					c-1.77,0.822-3.467,1.842-5.044,3.033C67.623,45.816,67.417,45.889,67.211,45.902z"/>
			</g>
			<g>
				<path fill="#FFFFFF" d="M113.393,75.207c-0.095,0.006-0.194,0-0.293-0.021c-0.592-0.123-0.971-0.703-0.846-1.295
					c0.51-2.441,0.688-4.965,0.529-7.498c-0.074-1.186-0.223-2.369-0.44-3.518c-0.112-0.594,0.276-1.166,0.871-1.279
					c0.606-0.098,1.169,0.277,1.28,0.871c0.235,1.238,0.395,2.512,0.475,3.789c0.172,2.729-0.021,5.449-0.573,8.084
					C114.293,74.832,113.872,75.178,113.393,75.207z"/>
			</g>
			<g>
				<path fill="#FFFFFF" d="M111.402,89.449c-0.229,0-0.461-0.072-0.659-0.223c-0.482-0.365-0.577-1.051-0.214-1.533
					c2.725-3.607,4.628-7.66,5.666-12.051c0.406-1.719,0.673-3.492,0.795-5.275c0.04-0.604,0.576-1.055,1.166-1.018
					c0.603,0.039,1.06,0.561,1.019,1.166c-0.13,1.902-0.414,3.797-0.849,5.631c-1.106,4.688-3.142,9.016-6.049,12.865
					C112.063,89.297,111.733,89.449,111.402,89.449z"/>
			</g>
			<g>
				<path fill="#FFFFFF" d="M52.946,80.35c-0.453,0-0.875-0.283-1.034-0.732c-1.081-3.09-1.718-6.324-1.892-9.613
					c-0.031-0.604,0.432-1.119,1.037-1.15c0.529-0.061,1.117,0.43,1.15,1.035c0.162,3.084,0.758,6.111,1.771,9.002
					c0.199,0.572-0.102,1.195-0.672,1.396C53.188,80.328,53.065,80.35,52.946,80.35z"/>
			</g>
			<g>
				<path fill="#FFFFFF" d="M58.852,96.6c-0.272,0-0.545-0.102-0.756-0.303c-0.557-0.531-1.098-1.084-1.621-1.646
					c-0.412-0.443-0.388-1.137,0.056-1.547c0.444-0.412,1.136-0.389,1.547,0.055c0.495,0.531,1.005,1.053,1.53,1.555
					c0.438,0.418,0.453,1.109,0.035,1.547C59.428,96.484,59.14,96.6,58.852,96.6z"/>
			</g>
			<path fill="#FFFFFF" d="M118.785,83.834c-0.451-0.221-1.011-0.104-1.33,0.283c-0.449,0.543-0.714,1.342-1.063,1.957
				c-0.715,1.266-1.511,2.482-2.366,3.656c-0.832,1.141-1.746,2.225-2.708,3.258c-0.474,0.506-0.962,1-1.463,1.479
				c-0.423,0.404-0.774,0.863-0.509,1.473c0.23,0.529,0.854,0.793,1.393,0.59c0.563-0.213,1.083-0.896,1.492-1.316
				c0.991-1.02,1.935-2.086,2.811-3.207c0.863-1.104,1.669-2.246,2.414-3.434c0.378-0.604,0.74-1.219,1.088-1.842
				c0.3-0.541,0.848-1.271,0.851-1.91C119.395,84.408,119.155,84.02,118.785,83.834C118.24,83.566,119.327,84.104,118.785,83.834z"
				/>
			<g>
				<path fill="#FFFFFF" d="M120.509,80.377c-0.107,0-0.215-0.016-0.325-0.049c-0.576-0.18-0.9-0.791-0.722-1.371
					c0.333-1.074,0.617-2.17,0.85-3.285c0.125-0.594,0.711-0.969,1.296-0.85c0.593,0.125,0.971,0.703,0.849,1.297
					c-0.246,1.182-0.549,2.344-0.901,3.486C121.409,80.074,120.977,80.377,120.509,80.377z"/>
			</g>
			<g>
				<path fill="#FFFFFF" d="M95.865,33.389c-0.108,0-0.219-0.016-0.328-0.049c-2.338-0.733-4.758-1.23-7.191-1.478
					c-0.602-0.062-1.039-0.599-0.979-1.2c0.063-0.603,0.6-1.037,1.201-0.979c2.579,0.262,5.145,0.789,7.625,1.565
					c0.576,0.181,0.898,0.796,0.717,1.373C96.764,33.09,96.332,33.389,95.865,33.389z"/>
			</g>
			<g>
				<path fill="#FFFFFF" d="M73.741,33.273c-0.471,0-0.905-0.305-1.048-0.778c-0.176-0.579,0.152-1.19,0.731-1.364
					c1.634-0.494,3.318-0.88,5.004-1.15c0.592-0.1,1.161,0.309,1.255,0.906c0.097,0.598-0.31,1.159-0.906,1.255
					c-1.591,0.257-3.181,0.622-4.72,1.085C73.952,33.26,73.845,33.273,73.741,33.273z"/>
			</g>
			<g>
				<path fill="#FFFFFF" d="M52.151,88.176c-0.376,0-0.742-0.193-0.946-0.543c-2.027-3.469-3.491-7.215-4.354-11.129
					c-0.129-0.59,0.244-1.176,0.834-1.305c0.574-0.127,1.174,0.242,1.305,0.834c0.813,3.691,2.194,7.223,4.106,10.496
					c0.306,0.521,0.13,1.191-0.394,1.496C52.53,88.127,52.339,88.176,52.151,88.176z"/>
			</g>
			<path fill="#FFFFFF" d="M53.243,94.744c-1.809-2.115-3.393-4.426-4.729-6.865c-0.441-0.805-0.994-2.699-2.278-2.061
				c-1.148,0.563-0.343,1.793,0.067,2.553c0.941,1.75,1.952,3.426,3.114,5.041c0.683,0.947,1.388,2.068,2.259,2.857
				C52.663,97.16,54.101,95.748,53.243,94.744C52.601,93.992,53.636,95.205,53.243,94.744z"/>
			<g>
				<path fill="#FFFFFF" d="M116.721,96.57c-0.249-0.008-0.495-0.098-0.696-0.273c-0.453-0.4-0.497-1.092-0.098-1.547
					c0.791-0.896,1.549-1.828,2.265-2.791c0.357-0.482,1.044-0.59,1.53-0.227c0.487,0.357,0.587,1.045,0.228,1.529
					c-0.751,1.014-1.548,1.992-2.38,2.938C117.347,96.451,117.033,96.578,116.721,96.57z"/>
			</g>
			<g>
				<path fill="#FFFFFF" d="M121.839,89.197c-0.174,0-0.352-0.041-0.517-0.129c-0.533-0.285-0.732-0.951-0.448-1.484
					c1.036-1.932,1.925-3.963,2.64-6.039c0.198-0.57,0.818-0.877,1.392-0.678c0.572,0.195,0.875,0.818,0.68,1.391
					c-0.755,2.186-1.688,4.326-2.779,6.361C122.607,88.986,122.229,89.197,121.839,89.197z"/>
			</g>
			<path fill="#FFFFFF" d="M93.293,25.697c-0.501-0.133-1.039-0.262-1.482,0.102c-0.658,0.541-0.449,1.628,0.359,1.889
				c0.506,0.164,1.136,0.295,1.584-0.064C94.462,27.055,94.18,25.885,93.293,25.697C93.293,25.697,93.885,25.822,93.293,25.697z"/>
			<g>
				<path fill="#FFFFFF" d="M76.774,27.744c-0.517,0-0.977-0.366-1.076-0.893c-0.111-0.594,0.279-1.166,0.875-1.279
					c3.943-0.74,8.008-0.934,12.149-0.553c0.603,0.057,1.046,0.59,0.99,1.192c-0.057,0.601-0.595,1.029-1.192,0.989
					c-3.937-0.365-7.797-0.178-11.543,0.524C76.909,27.738,76.841,27.744,76.774,27.744z"/>
			</g>
			<g>
				<path fill="#FFFFFF" d="M45.366,84.854c-0.435,0-0.847-0.262-1.018-0.689c-0.287-0.723-0.553-1.453-0.803-2.191
					c-0.193-0.572,0.115-1.195,0.688-1.387c0.575-0.188,1.194,0.115,1.388,0.688c0.234,0.703,0.49,1.395,0.762,2.08
					c0.223,0.561-0.051,1.199-0.612,1.422C45.639,84.828,45.502,84.854,45.366,84.854z"/>
			</g>
			<g>
				<path fill="#FFFFFF" d="M46.298,96.617c-0.342,0-0.681-0.16-0.893-0.459c-0.504-0.707-0.986-1.424-1.451-2.152
					c-0.327-0.51-0.178-1.186,0.334-1.512c0.511-0.328,1.188-0.176,1.511,0.334c0.444,0.697,0.907,1.383,1.389,2.059
					c0.353,0.492,0.236,1.176-0.255,1.527C46.739,96.551,46.517,96.617,46.298,96.617z"/>
			</g>
			<g>
				<path fill="#FFFFFF" d="M122.991,96.525c-0.221,0-0.443-0.066-0.637-0.203c-0.491-0.354-0.604-1.037-0.253-1.529
					c1.06-1.482,2.052-3.068,2.945-4.711c0.289-0.531,0.955-0.725,1.485-0.438c0.532,0.287,0.728,0.953,0.439,1.484
					c-0.937,1.721-1.977,3.383-3.088,4.939C123.669,96.367,123.334,96.525,122.991,96.525z"/>
			</g>
			<g>
				<path fill="#FFFFFF" d="M127.263,89.211c-0.156,0-0.316-0.033-0.468-0.105c-0.546-0.26-0.779-0.912-0.521-1.459
					c0.177-0.373,0.349-0.756,0.517-1.139c0.242-0.557,0.89-0.811,1.438-0.568c0.556,0.242,0.809,0.887,0.568,1.441
					c-0.175,0.404-0.356,0.809-0.545,1.203C128.066,88.98,127.673,89.211,127.263,89.211z"/>
			</g>
			<g>
				<path fill="#FFFFFF" d="M79.488,22.439c-0.549,0-1.022-0.411-1.087-0.97c-0.068-0.601,0.361-1.144,0.963-1.214
					c1.757-0.202,3.229-0.282,5.248-0.282c1.911,0,3.376,0.075,5.052,0.263c0.601,0.064,1.034,0.607,0.967,1.209
					c-0.065,0.599-0.589,1.043-1.209,0.967c-1.591-0.177-2.984-0.248-4.81-0.248c-1.928,0-3.33,0.075-4.996,0.268
					C79.573,22.436,79.531,22.439,79.488,22.439z"/>
			</g>
			<g>
				<path fill="#FFFFFF" d="M43.082,91.443c-0.39,0-0.769-0.209-0.966-0.576c-0.631-1.176-1.213-2.381-1.746-3.613
					c-0.239-0.555,0.016-1.201,0.57-1.441c0.551-0.24,1.197,0.014,1.44,0.57c0.507,1.176,1.063,2.326,1.665,3.449
					c0.285,0.533,0.086,1.197-0.447,1.482C43.433,91.402,43.257,91.443,43.082,91.443z"/>
			</g>
			<g>
				<path fill="#FFFFFF" d="M82.321,17.375c-0.674,0-1.197-0.631-1.075-1.293c0.157-0.857,0.974-0.899,1.679-0.925
					c1.191-0.042,2.402-0.062,3.593,0.005c0.697,0.039,1.322,0.523,1.186,1.293c-0.158,0.893-0.99,0.9-1.707,0.877
					C84.771,17.289,83.546,17.375,82.321,17.375C81.743,17.375,82.34,17.375,82.321,17.375z"/>
			</g>
			<g>
				<path fill="#FFFFFF" d="M128.788,96.551c-0.195,0-0.395-0.053-0.573-0.162c-0.515-0.318-0.674-0.992-0.357-1.508
					c0.611-0.992,1.196-2.006,1.741-3.041c0.279-0.535,0.943-0.742,1.479-0.457c0.534,0.281,0.739,0.943,0.456,1.479
					c-0.566,1.076-1.175,2.137-1.812,3.17C129.515,96.367,129.157,96.551,128.788,96.551z"/>
			</g>
			<g>
				<path fill="#FFFFFF" d="M40.524,96.646c-0.341-0.016-0.672-0.189-0.871-0.498c-0.471-0.729-1.504-2.496-1.936-3.246
					c-0.304-0.521-0.124-1.191,0.4-1.494c0.526-0.305,1.195-0.123,1.495,0.4c0.413,0.717,1.428,2.453,1.878,3.148
					c0.33,0.508,0.184,1.186-0.323,1.514C40.97,96.6,40.745,96.656,40.524,96.646z"/>
			</g>
			<path fill="#FFFFFF" d="M91.504,78.213c4.003-2.711,6.012-7.697,5.074-12.432c-0.869-4.391-4.221-8.07-8.522-9.324
				c-4.102-1.197-8.621-0.137-11.752,2.775c-3.341,3.109-4.679,7.938-3.415,12.324c0.644,2.232,1.938,4.254,3.69,5.777
				c0.834,0.725,1.764,1.328,2.756,1.809c1.212,0.576,2.186-1.199,1.063-1.912c-0.473-0.299-0.987-0.52-1.452-0.838
				c-0.489-0.336-0.949-0.715-1.372-1.133c-0.801-0.791-1.465-1.719-1.956-2.732c-1.028-2.125-1.271-4.604-0.677-6.889
				c1.272-4.887,6.197-8.146,11.195-7.359c4.939,0.766,8.629,5.221,8.46,10.217c-0.094,2.752-1.334,5.391-3.414,7.197
				c-0.513,0.447-1.071,0.84-1.664,1.174c-0.59,0.332-1.316,0.592-1.232,1.416c0.066,0.641,0.689,1.1,1.32,0.961
				C90.268,79.1,90.953,78.59,91.504,78.213C91.525,78.199,91.293,78.357,91.504,78.213z"/>
			<g>
				<path fill="#FFFFFF" d="M70.189,38.928c-0.404-0.004-0.791-0.234-0.978-0.625c-0.259-0.547-0.026-1.199,0.52-1.459
					c6.479-3.078,13.773-4.061,20.909-2.804c0.597,0.105,0.992,0.673,0.889,1.269c-0.104,0.598-0.673,0.998-1.269,0.889
					c-6.691-1.176-13.52-0.26-19.589,2.625C70.515,38.896,70.351,38.93,70.189,38.928z"/>
			</g>
			<path fill="#FFFFFF" d="M111.153,80.646c-1.232-0.646-1.829,1.113-2.294,1.895c-0.648,1.086-1.37,2.129-2.158,3.119
				c-1.57,1.977-3.406,3.738-5.445,5.225c-1.043,0.76-2.141,1.465-3.277,2.076c-0.611,0.33-1.236,0.637-1.871,0.92
				c-0.564,0.252-1.434,0.416-1.862,0.873c-0.351,0.377-0.391,0.963-0.095,1.381c0.436,0.617,1.117,0.471,1.72,0.236
				c1.179-0.469,2.328-1.01,3.439-1.619c2.831-1.559,5.408-3.568,7.608-5.934c1.129-1.213,2.124-2.516,3.042-3.891
				c0.507-0.76,0.981-1.545,1.418-2.35C111.733,81.924,111.991,81.082,111.153,80.646C110.615,80.365,111.691,80.926,111.153,80.646
				z"/>
			<path fill="#FFFFFF" d="M75.422,94.795c-0.372-0.391-1.04-0.549-1.438-0.693c-2.067-0.754-4.068-1.918-5.862-3.18
				c-1.77-1.242-3.385-2.701-4.787-4.35c-2.766-3.252-4.617-7.172-5.695-11.287c-0.744-2.84-1.158-5.943-0.828-8.875
				c0.067-0.598,0.2-1.324-0.05-1.896c-0.22-0.502-0.755-0.773-1.281-0.584c-0.542,0.195-0.754,0.684-0.825,1.219
				c-0.098,0.734-0.103,1.486-0.114,2.227c-0.084,5.771,1.336,11.453,4.317,16.414c1.979,3.293,4.585,6.207,7.642,8.535
				c1.757,1.338,3.667,2.479,5.665,3.418c0.412,0.193,0.889,0.367,1.255,0.521c0.397,0.166,0.814,0.355,1.254,0.357
				C75.602,96.623,76.051,95.457,75.422,94.795C75.048,94.402,75.776,95.168,75.422,94.795z"/>
			<circle fill="#FFFFFF" cx="35.633" cy="95.564" r="1.097"/>
			<circle fill="#FFFFFF" cx="133.818" cy="95.502" r="1.097"/>
			<circle fill="#FFFFFF" cx="84.611" cy="11.762" r="1.097"/>
			<g>
				<path fill="#FFFFFF" d="M103.915,96.635c-0.335,0-0.663-0.156-0.871-0.451c-0.337-0.479-0.223-1.143,0.257-1.48
					c0.948-0.666,1.869-1.391,2.74-2.156c0.441-0.387,1.113-0.344,1.5,0.098s0.344,1.113-0.099,1.5
					c-0.927,0.814-1.909,1.586-2.919,2.297C104.338,96.572,104.125,96.635,103.915,96.635z"/>
			</g>
		</g>
	</g>
	<g>
		<circle fill="#FFFFFF" cx="84.618" cy="67.977" r="4.75"/>
	</g>
	<g>
		<path fill="#FFFFFF" d="M31.583,105.426c0.068-0.113,0.164-0.217,0.285-0.311c0.123-0.096,0.299-0.143,0.529-0.143
			c0.203,0,0.373,0.055,0.509,0.16c0.134,0.107,0.247,0.23,0.335,0.369c0.088,0.137,0.163,0.27,0.224,0.395
			c0.062,0.127,0.112,0.215,0.153,0.264l0.346,0.754c2.061,4.424,4.098,8.824,6.11,13.205c2.014,4.379,4.044,8.779,6.091,13.203
			c0.014,0.037,0.031,0.098,0.051,0.18c0.021,0.082,0.031,0.146,0.031,0.197c0,0.377-0.271,0.564-0.814,0.564h-4.025
			c-0.557,0-0.93-0.236-1.119-0.715l-1.159-2.771H25.646l-1.139,2.734c-0.203,0.502-0.583,0.752-1.14,0.752h-4.006
			c-0.298,0-0.508-0.049-0.631-0.15c-0.121-0.1-0.182-0.238-0.182-0.414c0-0.076,0.01-0.15,0.029-0.225
			c0.021-0.076,0.045-0.145,0.072-0.209c2.033-4.422,4.061-8.818,6.08-13.186c2.021-4.365,4.06-8.756,6.121-13.166
			c0.108-0.25,0.224-0.5,0.347-0.744C31.319,105.926,31.448,105.678,31.583,105.426z M32.417,114.512
			c-0.094,0.238-0.189,0.477-0.283,0.715c-0.096,0.24-0.191,0.484-0.285,0.734l-4.475,10.502h10.047l-4.455-10.502
			c-0.08-0.238-0.168-0.479-0.264-0.725C32.607,114.992,32.513,114.75,32.417,114.512z"/>
		<path fill="#FFFFFF" d="M54.464,107.104c0-0.227,0.082-0.422,0.244-0.584c0.162-0.164,0.393-0.246,0.691-0.246h3.742
			c0.229,0,0.44,0.072,0.63,0.217s0.285,0.35,0.285,0.613V129.4h12.568c0.244,0,0.453,0.076,0.63,0.229
			c0.176,0.148,0.264,0.357,0.264,0.621v3.166c0,0.215-0.08,0.408-0.243,0.584s-0.38,0.264-0.65,0.264H55.358
			c-0.596,0-0.895-0.273-0.895-0.828V107.104z"/>
		<path fill="#FFFFFF" d="M81.821,107.104c0-0.227,0.074-0.422,0.223-0.584c0.149-0.164,0.373-0.246,0.672-0.246h3.722
			c0.23,0,0.45,0.076,0.66,0.227c0.211,0.152,0.316,0.352,0.316,0.604v26.332c0,0.555-0.326,0.828-0.977,0.828h-3.722
			c-0.597,0-0.895-0.273-0.895-0.828V107.104z"/>
		<path fill="#FFFFFF" d="M101.104,116.945v16.418c0,0.592-0.326,0.887-0.977,0.887h-3.579c-0.624,0-0.936-0.295-0.936-0.887V106.07
			c0-0.051,0.003-0.121,0.011-0.217c0.006-0.094,0.031-0.186,0.071-0.273c0.04-0.086,0.104-0.162,0.193-0.227
			c0.088-0.063,0.214-0.094,0.376-0.094c0.217,0,0.406,0.088,0.569,0.264l19.28,18.51v-16.869c0-0.604,0.324-0.904,0.975-0.904h3.58
			c0.623,0,0.936,0.301,0.936,0.904v27.389c0,0.049-0.004,0.117-0.011,0.205c-0.008,0.088-0.03,0.176-0.072,0.266
			c-0.04,0.086-0.104,0.162-0.192,0.227c-0.088,0.061-0.213,0.092-0.375,0.092c-0.218,0-0.407-0.088-0.569-0.264L101.104,116.945z"
			/>
		<path fill="#FFFFFF" d="M129.693,107.141c0-0.264,0.078-0.475,0.233-0.631s0.377-0.236,0.662-0.236h19.889
			c0.623,0,0.936,0.295,0.936,0.887v2.996c0,0.227-0.083,0.434-0.245,0.623c-0.162,0.188-0.398,0.281-0.711,0.281h-15.151v9.406
			h11.918c0.243,0,0.454,0.061,0.63,0.18s0.266,0.324,0.266,0.613v2.713c0,0.203-0.079,0.387-0.235,0.557
			c-0.155,0.17-0.376,0.254-0.66,0.254h-11.918v4.713h15.311c0.609,0,0.915,0.289,0.915,0.867v3.053
			c0,0.252-0.088,0.457-0.265,0.613c-0.176,0.156-0.406,0.234-0.691,0.234h-19.986c-0.272,0-0.488-0.064-0.652-0.197
			c-0.162-0.133-0.243-0.336-0.243-0.611V107.141z"/>
	</g>
	<g>
		<path fill="#FFFFFF" d="M65.289,96.639c-0.211,0-0.424-0.063-0.61-0.193c-3.396-2.391-6.308-5.338-8.655-8.76
			c-0.332-0.484-0.209-1.146,0.275-1.479c0.483-0.332,1.145-0.209,1.477,0.275c2.205,3.213,4.939,5.98,8.127,8.225
			c0.479,0.338,0.595,1,0.257,1.48C65.953,96.48,65.623,96.639,65.289,96.639z"/>
	</g>
	<g>
		<path fill="#FFFFFF" d="M114.588,149.299c-0.723,0-1.219,0.258-1.565,0.633c-0.431,0.445-0.619,1.16-0.619,1.992
			c0,0.764,0.132,1.422,0.519,1.912c0.327,0.412,0.875,0.713,1.666,0.713c0.802,0,1.314-0.301,1.661-0.746
			c0.36-0.457,0.515-1.115,0.515-1.879c0-0.777-0.185-1.52-0.602-1.992C115.818,149.584,115.288,149.299,114.588,149.299z"/>
		<path fill="#FFFFFF" d="M18.549,144.098v15.318h132.982v-15.318H18.549z M39.821,149.473h-2.999v6.756h-2.524v-6.756h-2.985
			v-1.855h8.509V149.473z M55.233,156.229h-7.534v-8.611h7.362v1.898h-4.869v1.359h4.305v1.855h-4.305v1.602h5.041V156.229z
			 M70.793,156.229h-7.289v-8.611h2.524v6.76h4.765V156.229z M86.281,156.229h-7.533v-8.611h7.359v1.898h-4.864v1.359h4.305v1.855
			h-4.305v1.602h5.038V156.229z M99.018,156.383c-1.449,0-2.723-0.428-3.731-1.361c-0.769-0.732-1.272-1.746-1.272-3.098
			c0-1.463,0.545-2.555,1.406-3.27c0.959-0.805,2.148-1.191,3.584-1.191c1.219,0,2.166,0.127,3.389,0.76l-0.693,1.648
			c-1.029-0.369-1.705-0.529-2.524-0.529c-0.772,0-1.589,0.285-2.005,0.764c-0.403,0.441-0.634,1.072-0.634,1.818
			c0,0.643,0.218,1.25,0.574,1.709c0.416,0.518,1.231,0.875,2.064,0.875c0.978,0,1.537-0.158,2.541-0.561l0.688,1.611
			C101.228,156.201,100.25,156.383,99.018,156.383z M118.199,154.982c-0.847,0.904-2.078,1.4-3.611,1.4
			c-1.366,0-2.569-0.398-3.403-1.172c-0.815-0.746-1.32-1.852-1.32-3.287c0-1.334,0.475-2.436,1.293-3.215
			c0.815-0.785,1.994-1.246,3.431-1.246c1.273,0,2.477,0.414,3.325,1.164c0.846,0.742,1.364,1.861,1.364,3.297
			C119.277,153.205,118.903,154.232,118.199,154.982z M138.768,156.229h-2.43v-5.697h-0.104l-1.96,5.697h-2.515l-1.964-5.697h-0.101
			v5.697h-2.268v-8.611h3.577l2.094,6.162l2.12-6.162h3.55V156.229z"/>
	</g>
</g>
</svg>
